<svg width="20" height="20" viewBox="0 0 20 20" fill="none" xmlns="http://www.w3.org/2000/svg">
<path d="M13.3451 17.63C13.3451 18.2276 12.835 19 12.1937 19H7.80632C7.16505 19 6.65493 18.2276 6.65493 17.63V13.3451H2.37C1.77244 13.3451 1 12.835 1 12.1937V7.80632C1 7.16505 1.77244 6.65493 2.37 6.65493H6.65493V2.37C6.65493 1.77244 7.16505 1 7.80632 1H12.1937C12.835 1 13.3451 1.77244 13.3451 2.37V6.65493H17.63C18.2276 6.65493 19 7.16505 19 7.80632V12.1937C19 12.835 18.2276 13.3451 17.63 13.3451H13.3451V17.63Z" fill="#7B7A8E"/>
</svg>
