<svg width="20" height="20" viewBox="0 0 20 20" fill="none" xmlns="http://www.w3.org/2000/svg">
<path d="M12.007 19V15.9745H7.99278V19H12.007ZM12.007 14.9041V4.11883C12.007 2.44932 10.3965 1 9.99984 1C9.60321 1 7.99272 2.44932 7.99272 4.11883V14.9041H12.007ZM18 19V15.9745H13.9858V19H18ZM18 14.9041V4.11883C18 2.44932 16.3895 1 15.9929 1C15.5962 1 13.9857 2.44932 13.9857 4.11883V14.9041H18ZM6.01425 19V15.9745H2.00006V19H6.01425ZM6.01425 14.9041V4.11883C6.01425 2.44932 4.40376 1 4.00713 1C3.61049 1 2 2.44932 2 4.11883V14.9041H6.01425Z" fill="#4272EC"/>
</svg>
