<svg width="11" height="11" viewBox="0 0 11 11" fill="none" xmlns="http://www.w3.org/2000/svg">
<path d="M5.93661 8.53655L3.51291 10.0653C3.40584 10.1366 3.2939 10.1672 3.1771 10.157C3.0603 10.1468 2.95809 10.1061 2.87049 10.0347C2.78288 9.96337 2.71475 9.8743 2.66608 9.76749C2.61741 9.66068 2.60768 9.54083 2.63688 9.40793L3.2793 6.51861L1.13302 4.57711C1.03568 4.48539 0.974943 4.38082 0.950803 4.26342C0.926664 4.14601 0.933866 4.03146 0.972412 3.91976C1.01096 3.80806 1.06936 3.71633 1.14762 3.64458C1.22588 3.57283 1.33295 3.52697 1.46883 3.507L4.30134 3.24711L5.39639 0.525955C5.44506 0.403656 5.52059 0.311931 5.62299 0.250782C5.72539 0.189632 5.82993 0.159058 5.93661 0.159058C6.04329 0.159058 6.14783 0.189632 6.25023 0.250782C6.35263 0.311931 6.42816 0.403656 6.47683 0.525955L7.57188 3.24711L10.4044 3.507C10.5407 3.52738 10.6477 3.57324 10.7256 3.64458C10.8035 3.71592 10.8619 3.80765 10.9008 3.91976C10.9397 4.03186 10.9471 4.14662 10.923 4.26403C10.8989 4.38144 10.8379 4.4858 10.7402 4.57711L8.59392 6.51861L9.23634 9.40793C9.26554 9.54042 9.25581 9.66027 9.20714 9.76749C9.15847 9.87471 9.09034 9.96378 9.00273 10.0347C8.91513 10.1056 8.81292 10.1464 8.69612 10.157C8.57932 10.1676 8.46738 10.137 8.36031 10.0653L5.93661 8.53655Z" fill="#4272EC"/>
</svg>
