<svg width="20" height="24" viewBox="0 0 20 24" fill="none" xmlns="http://www.w3.org/2000/svg">
<path d="M13.5773 16.1923C13.8791 16.7154 13.6999 17.384 13.177 17.6861C12.6536 17.9893 11.9847 17.8099 11.6828 17.2867L9.89585 14.1892L8.1089 17.2867C7.80699 17.8099 7.1381 17.9893 6.61488 17.6874C6.0918 17.384 5.91264 16.7154 6.21444 16.1923L8.00161 13.0944H4.42702C3.82295 13.0944 3.33325 12.6047 3.33325 12.0006C3.33325 11.3953 3.82295 10.9056 4.42702 10.9056H8.00161L6.21444 7.80767C5.91264 7.28464 6.0918 6.61599 6.61469 6.31393C7.1381 6.01066 7.80699 6.19007 8.1089 6.71328L9.89585 9.81085L11.6828 6.71328C11.9847 6.19007 12.6536 6.01066 13.1768 6.31257C13.6999 6.61599 13.8791 7.28464 13.5773 7.80767L11.7901 10.9056H15.3647C15.9687 10.9056 16.4584 11.3953 16.4584 11.9994C16.4584 12.6047 15.9687 13.0944 15.3647 13.0944H11.7901L13.5773 16.1923Z" fill="#4272EC"/>
</svg>
