<svg width="20" height="20" viewBox="0 0 20 20" fill="none" xmlns="http://www.w3.org/2000/svg">
<path d="M4.24492 0C11.9508 9.31083 11.3349 17.2125 10.0641 20C6.85325 16.1475 4.84658 14.6933 4.24492 14.4483C3.92325 8.99 1.83659 6.37667 0.833252 5.7525C4.79325 7.1975 6.58575 10.3458 6.98742 11.7392C7.57492 7.11 5.40408 1.98417 4.24492 0ZM12.9741 15.1833V17.325L15.8499 14.4483C15.8499 9.73917 18.0349 6.68917 19.1274 5.7525C15.1141 7.67917 13.3524 12.8425 12.9741 15.1842V15.1833ZM12.9741 10.0333L12.3049 11.9067C12.0908 10.4083 11.2349 8.65 10.8333 7.96C12.1708 4.8025 14.6016 1.3375 15.6499 0C13.5624 4.28083 12.9958 8.4725 12.9741 10.0333Z" fill="#4272EC"/>
</svg>
