<svg width="20" height="20" viewBox="0 0 20 20" fill="none" xmlns="http://www.w3.org/2000/svg">
<path d="M11.6592 6.93916L13.5325 5.24249H20C17.8725 7.18166 16.0917 7.62582 15.4667 7.60582H14.2583L15.95 10.0308L12.9892 11.3033L11.6592 6.93916ZM12.2033 16.4542L10.6317 7.60582L9.96667 8.39416V18.3333L12.2033 16.4542ZM8.34083 6.93916L6.46667 5.24249H0C2.1275 7.18166 3.90833 7.62582 4.53333 7.60582H5.74167L4.05 10.0308L7.01083 11.3033L8.34083 6.93916ZM7.73083 16.4542L9.3025 7.60582L9.96667 8.39416V18.3333L7.73083 16.4542ZM7.54 1.66666L6.875 2.81832L9.89667 6.33332L12.9192 2.81832L12.1333 1.66666H7.54Z" fill="#7B7A8E"/>
</svg>
